<?xml version="1.0" encoding="UTF-8" standalone="no"?>
<!DOCTYPE svg PUBLIC "-//W3C//DTD SVG 1.1//EN" "http://www.w3.org/Graphics/SVG/1.1/DTD/svg11.dtd">
<svg width="100%" height="100%" viewBox="0 0 467 111" version="1.1" xmlns="http://www.w3.org/2000/svg" xmlns:xlink="http://www.w3.org/1999/xlink" xml:space="preserve" xmlns:serif="http://www.serif.com/" style="fill-rule:evenodd;clip-rule:evenodd;stroke-linejoin:round;stroke-miterlimit:2;">
    <g transform="matrix(1,0,0,1,-534,-864)">
        <g transform="matrix(1,0,0,1.6022,1494,-274.001)">
            <g transform="matrix(2.33181,0,0,1.45538,-2412.93,-578.316)">
                <path d="M631.247,903.226C631.539,903.226 631.779,903.337 631.968,903.56C632.105,903.749 632.173,903.938 632.173,904.126C632.173,904.435 631.925,904.949 631.427,905.67C629.644,908.43 628.375,910.703 627.621,912.486C626.815,914.321 626.103,916.207 625.486,918.145C625.211,919.002 624.782,919.431 624.199,919.431C623.856,919.431 623.582,919.294 623.376,919.019C623.188,918.797 623.093,918.556 623.093,918.299C623.093,917.785 623.642,916.07 624.74,913.155C625.597,910.857 626.986,908.319 628.907,905.541C629.524,904.632 629.987,904.023 630.296,903.715C630.604,903.389 630.922,903.226 631.247,903.226ZM636.135,893.683C636.906,893.683 637.292,894.077 637.292,894.866C637.292,895.586 636.915,896.384 636.16,897.258C635.44,898.099 634.746,898.519 634.077,898.519C633.751,898.519 633.485,898.399 633.279,898.159C633.074,897.936 632.971,897.661 632.971,897.335C632.971,896.512 633.425,895.638 634.334,894.712C635.003,894.026 635.603,893.683 636.135,893.683Z" style="fill:white;fill-rule:nonzero;"/>
                <path d="M643.26,901.554C644.323,901.554 645.12,901.743 645.652,902.12C646.184,902.497 646.449,903.072 646.449,903.843C646.449,904.855 646.072,905.832 645.318,906.776C644.597,907.667 643.517,908.388 642.077,908.936C641.288,909.228 640.628,909.374 640.096,909.374C639.376,909.374 639.016,909.056 639.016,908.422C639.016,907.993 639.221,907.667 639.633,907.444C639.736,907.393 640.319,907.247 641.382,907.007C642.017,906.87 642.6,906.57 643.131,906.107C643.594,905.712 643.826,905.284 643.826,904.821C643.826,904.461 643.723,904.195 643.517,904.023C643.311,903.852 643.003,903.766 642.591,903.766C641.596,903.766 640.499,904.169 639.299,904.975C637.91,905.884 637.215,906.964 637.215,908.216C637.215,909.108 637.669,910.222 638.578,911.56C639.59,913.018 640.096,914.252 640.096,915.264C640.096,916.773 639.427,917.956 638.09,918.814C637.266,919.345 636.332,919.611 635.286,919.611C633.64,919.611 632.388,919.019 631.53,917.836C630.93,916.996 630.63,916.001 630.63,914.852C630.63,913.515 630.973,912.392 631.659,911.483C632.105,910.883 632.568,910.583 633.048,910.583C633.477,910.583 633.691,910.754 633.691,911.097C633.691,911.234 633.614,911.44 633.46,911.714C633.065,912.452 632.868,913.318 632.868,914.312C632.868,915.153 633.168,915.864 633.768,916.447C634.3,916.962 634.909,917.219 635.595,917.219C636.263,917.219 636.786,916.996 637.164,916.55C637.472,916.173 637.627,915.693 637.627,915.11C637.627,914.389 637.215,913.455 636.392,912.306C635.26,910.728 634.694,909.296 634.694,908.01C634.694,906.295 635.629,904.778 637.498,903.457C639.316,902.188 641.236,901.554 643.26,901.554Z" style="fill:white;fill-rule:nonzero;"/>
                <path d="M649.073,910.094C648.559,911.431 648.173,912.512 647.916,913.335C647.658,914.158 647.53,914.732 647.53,915.058C647.53,915.487 647.736,915.701 648.147,915.701C648.764,915.701 649.562,915.118 650.539,913.952C651.002,913.386 651.688,912.366 652.597,910.891C652.957,910.308 653.334,910.017 653.729,910.017C654.175,910.017 654.398,910.231 654.398,910.66C654.398,911.397 653.549,912.889 651.851,915.135C650.085,917.485 648.447,918.659 646.938,918.659C646.286,918.659 645.755,918.385 645.343,917.836C645.052,917.442 644.906,916.962 644.906,916.396C644.906,915.435 645.198,914.106 645.781,912.409C646.364,910.711 647.23,908.645 648.379,906.21C651.328,900.019 654.338,894.917 657.407,890.905C659.859,887.681 661.891,886.069 663.503,886.069C664.018,886.069 664.438,886.266 664.764,886.661C665.107,887.055 665.278,887.509 665.278,888.024C665.278,890.425 663.135,894.42 658.848,900.011C656.927,902.497 654.629,904.984 651.954,907.47C651.251,908.122 650.291,908.996 649.073,910.094ZM650.899,906.004C654.466,902.951 657.656,899.093 660.468,894.429C661.926,892.011 662.655,890.407 662.655,889.619C662.655,889.241 662.492,889.053 662.166,889.053C661.223,889.053 659.508,890.93 657.021,894.686C654.964,897.773 652.923,901.545 650.899,906.004Z" style="fill:white;fill-rule:nonzero;"/>
                <path d="M663.735,914.389C663.169,915.384 662.612,916.224 662.063,916.91C660.983,918.248 659.911,918.917 658.848,918.917C657.922,918.917 657.201,918.479 656.687,917.605C656.361,917.039 656.198,916.37 656.198,915.598C656.198,913.695 656.798,911.594 657.999,909.296C659.336,906.741 660.948,904.778 662.835,903.406C664.069,902.514 665.261,902.068 666.41,902.068C667.13,902.068 667.731,902.291 668.211,902.737C668.622,903.132 668.828,903.577 668.828,904.075C668.828,904.452 668.682,904.975 668.391,905.644C668.648,906.004 668.777,906.321 668.777,906.596C668.777,906.956 668.536,907.547 668.056,908.37C667.559,909.211 667.062,910.325 666.564,911.714C666.033,913.189 665.767,914.372 665.767,915.264C665.767,915.984 665.981,916.576 666.41,917.039C666.53,917.159 666.882,917.356 667.465,917.63C667.893,917.836 668.108,918.196 668.108,918.711C668.108,919.037 667.988,919.302 667.748,919.508C667.49,919.731 667.19,919.843 666.847,919.843C665.921,919.843 665.124,919.431 664.455,918.608C663.906,917.939 663.632,917.099 663.632,916.087C663.632,915.744 663.666,915.178 663.735,914.389ZM666.95,905.927C666.744,905.549 666.522,905.271 666.281,905.091C666.041,904.911 665.784,904.821 665.51,904.821C664.207,904.821 662.792,905.961 661.266,908.242C659.585,910.763 658.745,912.898 658.745,914.647C658.745,915.075 658.826,915.401 658.989,915.624C659.152,915.847 659.396,915.959 659.722,915.959C660.545,915.959 661.506,915.084 662.603,913.335C663.22,912.375 663.984,910.96 664.892,909.091C665.493,907.873 665.93,907.067 666.204,906.673C666.341,906.467 666.59,906.218 666.95,905.927Z" style="fill:white;fill-rule:nonzero;"/>
                <path d="M674.564,909.811C674.787,909.605 675.001,909.399 675.207,909.193C678.791,905.695 681.192,903.946 682.409,903.946C683.078,903.946 683.413,904.315 683.413,905.052C683.413,905.567 683.113,906.175 682.512,906.878C679.237,910.703 677.599,914.072 677.599,916.987C677.599,917.931 677.857,918.831 678.371,919.688C678.611,920.083 678.731,920.391 678.731,920.614C678.731,920.82 678.628,921.017 678.422,921.206C678.2,921.446 677.934,921.566 677.625,921.566C676.922,921.566 676.33,921.12 675.85,920.228C675.387,919.388 675.156,918.368 675.156,917.167C675.156,914.852 676.03,912.289 677.779,909.476C675.447,910.968 673.278,913.609 671.272,917.399C670.757,918.308 670.208,918.762 669.625,918.762C669.334,918.762 669.094,918.659 668.905,918.454C668.665,918.214 668.545,917.905 668.545,917.528C668.545,916.602 669.6,914.175 671.709,910.248C672.841,908.122 673.732,906.578 674.384,905.618C675.036,904.675 675.593,904.203 676.056,904.203C676.279,904.203 676.493,904.306 676.699,904.512C676.939,904.752 677.059,905.026 677.059,905.335C677.059,905.712 676.811,906.253 676.313,906.956C675.593,908.002 675.01,908.953 674.564,909.811Z" style="fill:white;fill-rule:nonzero;"/>
                <path d="M693.727,903.612C695.442,900.028 697.063,896.907 698.589,894.249C700.064,891.676 701.067,890.056 701.598,889.387C702.182,888.65 702.73,888.281 703.245,888.281C703.519,888.281 703.768,888.393 703.991,888.615C704.196,888.838 704.299,889.078 704.299,889.336C704.299,889.73 704.008,890.39 703.425,891.316C700.938,895.329 698.658,899.402 696.583,903.535C694.182,908.353 692.981,911.963 692.981,914.364C692.981,915.341 693.17,916.113 693.547,916.679C693.616,916.799 693.925,917.073 694.473,917.502C694.576,917.588 694.628,917.759 694.628,918.016C694.628,918.359 694.495,918.672 694.229,918.955C693.963,919.238 693.667,919.38 693.342,919.38C692.947,919.38 692.51,919.14 692.03,918.659C691.344,917.973 690.932,917.185 690.795,916.293C690.744,915.916 690.684,915.213 690.615,914.184C688.814,917.425 687.1,919.045 685.47,919.045C684.527,919.045 683.773,918.514 683.207,917.45C682.83,916.747 682.641,915.95 682.641,915.058C682.641,912.383 683.618,909.691 685.573,906.981C687.511,904.306 689.595,902.969 691.824,902.969C692.441,902.969 693.076,903.183 693.727,903.612ZM692.853,905.721C692.39,905.412 691.987,905.258 691.644,905.258C690.203,905.258 688.84,906.141 687.554,907.907C685.856,910.205 685.007,912.426 685.007,914.569C685.007,914.827 685.059,915.067 685.162,915.29C685.368,915.718 685.676,915.933 686.088,915.933C686.688,915.933 687.417,915.35 688.274,914.184C689.423,912.64 690.486,910.814 691.464,908.705C691.807,907.985 692.141,907.264 692.467,906.544C692.467,906.544 692.544,906.381 692.698,906.055L692.853,905.721Z" style="fill:white;fill-rule:nonzero;"/>
                <path d="M727.81,888.77C726.541,888.993 725.032,889.584 723.283,890.545C722.905,890.75 722.605,890.853 722.382,890.853C722.142,890.853 721.902,890.733 721.662,890.493C721.422,890.236 721.302,889.927 721.302,889.567C721.302,889.156 721.516,888.796 721.945,888.487C722.991,887.732 724.286,887.098 725.829,886.583C727.698,885.949 729.447,885.632 731.077,885.632C733.151,885.632 734.841,886.343 736.144,887.767C737.327,889.036 737.919,890.605 737.919,892.474C737.919,895.561 736.667,899.307 734.163,903.715C731.454,908.43 728.153,912.666 724.26,916.422C720.968,919.594 718.138,921.18 715.772,921.18C714.383,921.18 713.259,920.546 712.402,919.277C711.75,918.282 711.424,917.133 711.424,915.83C711.424,912.623 712.539,908.902 714.768,904.666C717.752,898.99 722.099,893.691 727.81,888.77ZM729.147,888.487C729.439,888.83 729.585,889.13 729.585,889.387C729.585,889.61 729.122,890.236 728.196,891.265C724.423,895.312 721.628,898.682 719.81,901.374C717.924,904.152 716.483,906.938 715.489,909.734C714.786,911.757 714.434,913.549 714.434,915.11C714.434,915.881 714.588,916.524 714.897,917.039C715.291,917.673 715.866,917.991 716.62,917.991C718.215,917.991 720.35,916.653 723.025,913.978C726.421,910.583 729.19,907.059 731.334,903.406C733.752,899.256 734.961,895.715 734.961,892.783C734.961,891.411 734.515,890.287 733.623,889.413C732.937,888.744 732.003,888.41 730.819,888.41L729.147,888.487Z" style="fill:white;fill-rule:nonzero;"/>
                <path d="M738.022,906.493C740.645,900.834 743.209,896.229 745.713,892.68C747.41,890.279 748.816,888.53 749.931,887.432C750.703,886.661 751.363,886.275 751.912,886.275C752.118,886.275 752.298,886.343 752.452,886.481C752.692,886.652 752.812,886.883 752.812,887.175C752.812,887.552 752.512,888.092 751.912,888.796C748.122,893.117 744.692,898.296 741.623,904.332C744.366,903.286 746.279,902.763 747.359,902.763C748.148,902.763 748.799,902.96 749.314,903.354C749.845,903.766 750.111,904.238 750.111,904.769C750.111,905.044 750.017,905.292 749.828,905.515C749.571,905.841 749.237,906.004 748.825,906.004C748.534,906.004 747.959,905.764 747.102,905.284C746.862,905.164 746.553,905.104 746.176,905.104C744.461,905.104 742.403,905.884 740.002,907.444C741.031,907.925 741.76,908.559 742.189,909.348C742.772,910.462 743.063,911.834 743.063,913.463C743.063,917.665 741.811,922.098 739.308,926.762C738.227,928.751 737.181,930.26 736.17,931.289C735.089,932.404 733.983,932.961 732.851,932.961C731.994,932.961 731.299,932.55 730.768,931.726C730.339,931.04 730.125,930.106 730.125,928.923C730.125,926.385 731.085,922.569 733.006,917.476C733.246,916.859 733.932,915.273 735.063,912.717C735.355,912.083 735.638,911.406 735.912,910.685C735.775,910.72 735.647,910.737 735.526,910.737C735.063,910.737 734.832,910.48 734.832,909.965C734.832,909.056 735.895,907.899 738.022,906.493ZM738.896,909.862C737.936,911.68 736.667,914.612 735.089,918.659C733.46,922.792 732.646,925.999 732.646,928.28C732.646,928.725 732.757,929.12 732.98,929.463C733.22,929.806 733.503,929.977 733.829,929.977C734.892,929.977 736.29,928.194 738.022,924.627C739.976,920.649 740.954,917.005 740.954,913.695C740.954,912.409 740.705,911.44 740.208,910.788C740.019,910.531 739.582,910.222 738.896,909.862Z" style="fill:white;fill-rule:nonzero;"/>
                <path d="M751.474,906.493C754.098,900.834 756.662,896.229 759.165,892.68C760.863,890.279 762.269,888.53 763.384,887.432C764.156,886.661 764.816,886.275 765.365,886.275C765.57,886.275 765.75,886.343 765.905,886.481C766.145,886.652 766.265,886.883 766.265,887.175C766.265,887.552 765.965,888.092 765.365,888.796C761.575,893.117 758.145,898.296 755.076,904.332C757.819,903.286 759.731,902.763 760.812,902.763C761.601,902.763 762.252,902.96 762.767,903.354C763.298,903.766 763.564,904.238 763.564,904.769C763.564,905.044 763.47,905.292 763.281,905.515C763.024,905.841 762.689,906.004 762.278,906.004C761.986,906.004 761.412,905.764 760.555,905.284C760.314,905.164 760.006,905.104 759.628,905.104C757.914,905.104 755.856,905.884 753.455,907.444C754.484,907.925 755.213,908.559 755.642,909.348C756.225,910.462 756.516,911.834 756.516,913.463C756.516,917.665 755.264,922.098 752.761,926.762C751.68,928.751 750.634,930.26 749.622,931.289C748.542,932.404 747.436,932.961 746.304,932.961C745.447,932.961 744.752,932.55 744.221,931.726C743.792,931.04 743.578,930.106 743.578,928.923C743.578,926.385 744.538,922.569 746.459,917.476C746.699,916.859 747.385,915.273 748.516,912.717C748.808,912.083 749.091,911.406 749.365,910.685C749.228,910.72 749.099,910.737 748.979,910.737C748.516,910.737 748.285,910.48 748.285,909.965C748.285,909.056 749.348,907.899 751.474,906.493ZM752.349,909.862C751.389,911.68 750.12,914.612 748.542,918.659C746.913,922.792 746.098,925.999 746.098,928.28C746.098,928.725 746.21,929.12 746.433,929.463C746.673,929.806 746.956,929.977 747.282,929.977C748.345,929.977 749.742,928.194 751.474,924.627C753.429,920.649 754.407,917.005 754.407,913.695C754.407,912.409 754.158,911.44 753.661,910.788C753.472,910.531 753.035,910.222 752.349,909.862Z" style="fill:white;fill-rule:nonzero;"/>
                <path d="M767.422,903.226C767.714,903.226 767.954,903.337 768.143,903.56C768.28,903.749 768.348,903.938 768.348,904.126C768.348,904.435 768.1,904.949 767.602,905.67C765.819,908.43 764.55,910.703 763.796,912.486C762.99,914.321 762.278,916.207 761.661,918.145C761.386,919.002 760.957,919.431 760.374,919.431C760.031,919.431 759.757,919.294 759.551,919.019C759.363,918.797 759.268,918.556 759.268,918.299C759.268,917.785 759.817,916.07 760.915,913.155C761.772,910.857 763.161,908.319 765.082,905.541C765.699,904.632 766.162,904.023 766.471,903.715C766.779,903.389 767.097,903.226 767.422,903.226ZM772.31,893.683C773.081,893.683 773.467,894.077 773.467,894.866C773.467,895.586 773.09,896.384 772.335,897.258C771.615,898.099 770.921,898.519 770.252,898.519C769.926,898.519 769.66,898.399 769.455,898.159C769.249,897.936 769.146,897.661 769.146,897.335C769.146,896.512 769.6,895.638 770.509,894.712C771.178,894.026 771.778,893.683 772.31,893.683Z" style="fill:white;fill-rule:nonzero;"/>
                <path d="M776.94,902.686C778.294,902.686 778.972,903.397 778.972,904.821C778.972,906.072 778.483,907.333 777.506,908.602C776.751,909.562 776.091,910.042 775.525,910.042C775.045,910.042 774.805,909.768 774.805,909.219C774.805,908.928 774.873,908.696 775.011,908.525C775.062,908.456 775.268,908.259 775.628,907.933C775.937,907.642 776.254,907.204 776.58,906.621C776.803,906.227 776.914,905.91 776.914,905.67C776.914,905.395 776.76,905.258 776.451,905.258C776.091,905.258 775.542,905.541 774.805,906.107C773.639,907.016 772.473,908.439 771.307,910.377C770.106,912.4 769.506,913.995 769.506,915.161C769.506,915.538 769.617,915.873 769.84,916.164C770.166,916.61 770.603,916.833 771.152,916.833C772.233,916.833 773.51,916.164 774.985,914.827C776.237,913.678 777.291,912.529 778.149,911.38C778.595,910.745 778.98,910.428 779.306,910.428C779.495,910.428 779.666,910.514 779.821,910.685C779.958,910.857 780.026,911.028 780.026,911.2C780.026,911.834 779.212,913.069 777.583,914.904C774.993,917.785 772.644,919.225 770.535,919.225C769.266,919.225 768.297,918.771 767.628,917.862C767.148,917.193 766.908,916.404 766.908,915.496C766.908,913.712 767.645,911.646 769.12,909.296C770.543,907.05 772.19,905.241 774.059,903.869C775.156,903.08 776.117,902.686 776.94,902.686Z" style="fill:white;fill-rule:nonzero;"/>
                <path d="M788.772,903.226C789.064,903.226 789.304,903.337 789.492,903.56C789.63,903.749 789.698,903.938 789.698,904.126C789.698,904.435 789.449,904.949 788.952,905.67C787.169,908.43 785.9,910.703 785.145,912.486C784.339,914.321 783.628,916.207 783.01,918.145C782.736,919.002 782.307,919.431 781.724,919.431C781.381,919.431 781.107,919.294 780.901,919.019C780.712,918.797 780.618,918.556 780.618,918.299C780.618,917.785 781.167,916.07 782.264,913.155C783.122,910.857 784.511,908.319 786.431,905.541C787.049,904.632 787.512,904.023 787.82,903.715C788.129,903.389 788.446,903.226 788.772,903.226ZM793.659,893.683C794.431,893.683 794.817,894.077 794.817,894.866C794.817,895.586 794.44,896.384 793.685,897.258C792.965,898.099 792.27,898.519 791.602,898.519C791.276,898.519 791.01,898.399 790.804,898.159C790.598,897.936 790.496,897.661 790.496,897.335C790.496,896.512 790.95,895.638 791.859,894.712C792.528,894.026 793.128,893.683 793.659,893.683Z" style="fill:white;fill-rule:nonzero;"/>
                <path d="M796.54,914.389C795.974,915.384 795.417,916.224 794.868,916.91C793.788,918.248 792.716,918.917 791.653,918.917C790.727,918.917 790.007,918.479 789.492,917.605C789.167,917.039 789.004,916.37 789.004,915.598C789.004,913.695 789.604,911.594 790.804,909.296C792.142,906.741 793.754,904.778 795.64,903.406C796.875,902.514 798.067,902.068 799.215,902.068C799.936,902.068 800.536,902.291 801.016,902.737C801.428,903.132 801.633,903.577 801.633,904.075C801.633,904.452 801.488,904.975 801.196,905.644C801.453,906.004 801.582,906.321 801.582,906.596C801.582,906.956 801.342,907.547 800.862,908.37C800.364,909.211 799.867,910.325 799.37,911.714C798.838,913.189 798.572,914.372 798.572,915.264C798.572,915.984 798.787,916.576 799.215,917.039C799.335,917.159 799.687,917.356 800.27,917.63C800.699,917.836 800.913,918.196 800.913,918.711C800.913,919.037 800.793,919.302 800.553,919.508C800.296,919.731 799.996,919.843 799.653,919.843C798.727,919.843 797.929,919.431 797.261,918.608C796.712,917.939 796.437,917.099 796.437,916.087C796.437,915.744 796.472,915.178 796.54,914.389ZM799.756,905.927C799.55,905.549 799.327,905.271 799.087,905.091C798.847,904.911 798.59,904.821 798.315,904.821C797.012,904.821 795.597,905.961 794.071,908.242C792.39,910.763 791.55,912.898 791.55,914.647C791.55,915.075 791.632,915.401 791.795,915.624C791.957,915.847 792.202,915.959 792.528,915.959C793.351,915.959 794.311,915.084 795.409,913.335C796.026,912.375 796.789,910.96 797.698,909.091C798.298,907.873 798.735,907.067 799.01,906.673C799.147,906.467 799.396,906.218 799.756,905.927Z" style="fill:white;fill-rule:nonzero;"/>
                <path d="M806.829,910.094C806.315,911.431 805.929,912.512 805.672,913.335C805.415,914.158 805.286,914.732 805.286,915.058C805.286,915.487 805.492,915.701 805.903,915.701C806.521,915.701 807.318,915.118 808.296,913.952C808.759,913.386 809.444,912.366 810.353,910.891C810.713,910.308 811.091,910.017 811.485,910.017C811.931,910.017 812.154,910.231 812.154,910.66C812.154,911.397 811.305,912.889 809.607,915.135C807.841,917.485 806.203,918.659 804.694,918.659C804.043,918.659 803.511,918.385 803.1,917.836C802.808,917.442 802.662,916.962 802.662,916.396C802.662,915.435 802.954,914.106 803.537,912.409C804.12,910.711 804.986,908.645 806.135,906.21C809.084,900.019 812.094,894.917 815.163,890.905C817.616,887.681 819.648,886.069 821.26,886.069C821.774,886.069 822.194,886.266 822.52,886.661C822.863,887.055 823.035,887.509 823.035,888.024C823.035,890.425 820.891,894.42 816.604,900.011C814.683,902.497 812.385,904.984 809.71,907.47C809.007,908.122 808.047,908.996 806.829,910.094ZM808.656,906.004C812.222,902.951 815.412,899.093 818.224,894.429C819.682,892.011 820.411,890.407 820.411,889.619C820.411,889.241 820.248,889.053 819.922,889.053C818.979,889.053 817.264,890.93 814.778,894.686C812.72,897.773 810.679,901.545 808.656,906.004Z" style="fill:white;fill-rule:nonzero;"/>
            </g>
        </g>
    </g>
</svg>
