<?xml version="1.0" encoding="UTF-8" standalone="no"?><!DOCTYPE svg PUBLIC "-//W3C//DTD SVG 1.1//EN" "http://www.w3.org/Graphics/SVG/1.1/DTD/svg11.dtd"><svg width="100%" height="100%" viewBox="0 0 462 108" version="1.1" xmlns="http://www.w3.org/2000/svg" xmlns:xlink="http://www.w3.org/1999/xlink" xml:space="preserve" xmlns:serif="http://www.serif.com/" style="fill-rule:evenodd;clip-rule:evenodd;stroke-linejoin:round;stroke-miterlimit:2;"><path id="this" d="M16.914,43.087c-3.504,3.505 -6.842,7.132 -9.92,11.027c-1.712,2.167 -2.445,5.426 -3.808,7.868c-1.403,2.511 -3.192,7.525 -1.786,10.259c0.11,0.215 1.245,2.288 1.52,2.288c1.531,-0 2.842,-4.26 3.44,-5.196c2.985,-4.677 7.042,-9.894 12.208,-12.297c8.263,-3.843 17.662,-2.158 26.187,-4.945c3.981,-1.301 7.133,-8.199 5.576,-12.137c-0.935,-2.366 -3.755,-2.727 -5.845,-2.908c-4.295,-0.372 -14.592,4.236 -15.88,9.465c-1.217,4.939 3.146,11.625 4.576,16.356c0.942,3.116 2.999,6.099 1.018,9.374c-2.646,4.377 -9.501,7.25 -11.824,0.767c-1.277,-3.565 -1.152,-8.997 0.251,-12.547c0.67,-1.694 4.807,-2.037 6.363,-2.037c6.313,0 11.934,-1.172 18.053,-2.657c3.054,-0.741 5.532,-2.575 8.4,-3.676c1.61,-0.618 3.394,-0.726 4.96,-1.52c10.225,-5.187 16.074,-15.169 23.283,-23.703c3.894,-4.611 13.757,-15.892 10.48,-22.32c-1.366,-2.68 -4.402,-2.276 -6.731,-0.886c-3.99,2.382 -6.432,6.675 -9.802,9.722c-3.188,2.883 -3.918,6.581 -6.347,9.891c-6.573,8.953 -14.408,19.96 -16.744,30.839c-0.901,4.199 -0.988,8.082 0.133,12.178c0.286,1.044 0.004,2.433 1.152,3.041c2.38,1.26 6.307,-3.629 7.617,-4.827c5.954,-5.447 13.35,-9.647 19.84,-14.452c3.818,-2.827 8.603,-4.536 12.975,-6.214c1.274,-0.489 3.719,-2.76 5.06,-3.004c0.078,-0.014 1.786,0.009 1.786,-0c-0,-0.558 -1.959,-0.886 -2.288,-0.886c-2.399,0 -6.633,2.444 -8.765,3.521c-6.656,3.36 -12.135,10.05 -13.847,17.359c-0.312,1.334 0.092,2.606 -0.132,3.941c-0.349,2.078 -0.342,9.199 1.653,10.776c2.255,1.783 6.392,-2.73 7.632,-4.059c5.63,-6.032 9.197,-13.302 12.208,-20.917c0.838,-2.12 2.581,-6.185 3.288,-8.348c0.094,-0.288 1.018,-1.681 0.635,-2.022c-0.31,-0.275 -1.385,0.983 -1.536,1.137c-1.318,1.344 -3.607,5.342 -4.306,7.078c-0.69,1.71 -0.612,3.704 -1.137,5.447c-1.916,6.357 -2.422,8.893 -1.037,15.511c0.416,1.989 2.553,5.552 5.056,6.214c3.192,0.845 3.853,-2.347 5.266,-4.351c2.124,-3.01 3.339,-6.27 5.329,-9.388c1.301,-2.038 2.832,-3.784 3.691,-6.082c1.178,-3.153 2.571,-5.969 4.842,-8.503c0.43,-0.48 0.903,-1.748 1.52,-2.022c0.17,-0.075 -1.175,1.647 -1.402,1.904c-1.484,1.678 -2.279,2.997 -3.174,5.063c-2.057,4.747 -5.482,8.102 -6.864,13.197c-0.5,1.841 -1.632,3.453 -2.037,5.314c-0.204,0.932 -0.635,2.79 -0.635,2.79c-0,0 1.436,-2.362 2.155,-3.542c1.203,-1.975 1.771,-4.175 3.307,-5.964c4.24,-4.941 8.904,-9.101 14.378,-12.68c1.77,-1.158 3.552,-2.365 5.58,-3.041c0.957,-0.319 2.804,-1.137 2.804,-1.137c0,0 -2.133,0.457 -3.055,1.004c-1.742,1.033 -3.045,2.983 -4.06,4.694c-3.449,5.816 -5.86,12.181 -5.86,18.895c-0,2.324 -0.36,4.586 0.767,6.716c0.363,0.686 1.235,-1.441 1.27,-1.52c1.021,-2.312 2.102,-4.551 3.188,-6.849c2.633,-5.571 3.942,-10.818 8.902,-15.205c5.24,-4.635 10.075,-8.505 17.153,-9.772c2.144,-0.384 4.448,0.111 6.613,-0.384c1.056,-0.241 2.447,-2.271 1.27,-3.041c-2.177,-1.423 -4.766,0.748 -6.732,1.403c-8.846,2.948 -12.196,11.017 -14.879,19.145c-0.714,2.164 -2.183,8.684 0.251,10.275c4.374,2.86 9.332,-3.488 11.706,-6.348c3.937,-4.745 7.325,-10.641 9.403,-16.489c2.125,-5.98 3.181,-12.394 6.613,-17.994c2.984,-4.868 6.238,-11.389 10.688,-14.968c1.559,-1.255 3.41,-6.128 5.059,-7.311c0.772,-0.553 2.156,-0.913 3.056,-1.269c0.44,-0.174 1.269,-0.635 1.269,-0.635c0,0 -1.476,0.116 -2.155,0.384c-1.012,0.4 -1.726,1.332 -2.554,2.037c-3.055,2.601 -5.984,8.061 -8.248,11.355c-5.482,7.979 -8.372,15.631 -11.307,24.726c-1.667,5.163 -3.443,9.933 -4.074,15.352c-0.367,3.147 -0.635,6.471 -0.635,9.624c-0,1.089 -0.318,2.591 0.517,3.425c0.754,0.755 2.341,0 3.173,0c4.046,0 8.267,-3.521 11.308,-5.698c6.613,-4.734 11.099,-11.221 16.533,-16.99c5.992,-6.362 11.883,-13.108 18.054,-19.279c6.878,-6.879 14.525,-13.122 23.397,-17.242c2.954,-1.371 5.949,-4.998 9.167,-5.329c1.161,-0.119 2.093,-0.695 3.041,-1.269c0.425,-0.257 1.403,-0.502 1.403,-0.502c-0,0 -1.523,0.435 -2.288,0.635c-1.261,0.329 -2.355,1.191 -3.425,1.904c-3.819,2.546 -6.363,7.972 -9.669,11.278c-5.85,5.849 -11.139,14.292 -14.976,21.452c-3.031,5.657 -3.908,10.872 -6.171,18.397c-1.728,5.75 -0.957,12.833 2.288,14.835c7.51,4.634 13.688,-1.786 19.612,-5.735c5.866,-3.91 9.385,-10.681 13.477,-16.237c9.323,-12.66 28.02,-33.223 16.611,-49.127c-2.533,-3.529 -7.386,-3.762 -11.19,-4.443c-5.089,-0.91 -10.592,2.442 -14.824,4.558c-1.312,0.656 -2.821,1.241 -4.074,2.022c-1.608,1.002 -2.12,6.555 -3.041,8.078c-2.303,3.808 -4.709,8.483 -4.709,13.049c-0,4.624 1.188,16.459 8.384,15.721c12.235,-1.254 20.591,-12.534 29.627,-19.514c5.388,-4.162 11.461,-7.611 17.036,-11.544c3.702,-2.612 11.551,-7.372 15.724,-9.215c0.705,-0.311 3.534,-2.046 4.444,-1.136c0.628,0.629 -7.013,7.503 -7.326,7.812c-4.763,4.702 -9.591,10.733 -13.211,16.356c-8.779,13.635 -13.513,28.022 -19.243,43.118c-1.673,4.408 -4.514,8.293 -5.594,12.931c-1.621,6.959 -4.267,18.732 2.576,23.206c3.95,2.582 7.085,-2.771 9.034,-5.078c6.763,-8.007 10.901,-20.256 12.208,-30.557c0.66,-5.202 0.853,-12.207 -1.904,-16.857c-1.041,-1.755 -3.075,-2.672 -4.842,-3.425c-0.435,-0.185 -2.769,-0.295 -2.539,-0.768c2.793,-5.751 14.437,-10.654 20.053,-9.332c1.389,0.326 3.563,2.703 4.96,2.273c1.893,-0.583 3.13,-2.908 4.326,-4.311c2.889,-3.389 3.578,-4.055 6.65,-7.274c5.35,-5.605 11.658,-16.875 17.902,-21.473c1.943,-1.431 3.627,-3.032 5.477,-4.562c0.618,-0.511 1.544,-1.142 2.022,-1.786c0.041,-0.055 0.901,-0.808 0.901,-0.635c-0,0.843 -2.377,3.093 -2.805,3.676c-3.176,4.327 -9.165,12.09 -11.894,16.813c-3.21,5.557 -6.309,11.201 -9.581,16.721c-6.782,11.445 -12.926,24.099 -16.4,36.904c-1.887,6.953 -4.694,12.626 -4.694,20.031c-0,1.859 -0.626,5.17 1.136,6.466c2.508,1.844 4.865,-1.994 6.747,-3.307c1.572,-1.097 2.237,-2.462 3.424,-3.926c4.756,-5.868 8.516,-12.273 10.688,-19.648c1.585,-5.383 2.22,-12.99 0.384,-18.393c-0.679,-1.997 -1.697,-4.576 -3.691,-5.314c-3.238,-1.199 -8.856,0.453 -8.653,-0.003c1.03,-2.318 9.009,-7.291 11.115,-8.344c5.757,-2.879 14.238,-4.823 19.401,-1.543c1.705,1.083 8.428,-3.585 10.38,-2.882c2.771,0.997 -5.155,6.954 -6.941,9.982c-3.678,6.237 -7.552,12.594 -8.13,20.032c-0.079,1.022 -0.871,6.993 0.498,7.602c0.467,0.207 2.988,-2.717 3.307,-3.041c3.525,-3.595 6.701,-7.971 11.189,-10.525c3.789,-2.156 7.468,-4.424 11.19,-6.717c3.218,-1.982 6.593,-2.825 9.536,-5.461c2.201,-1.973 5.62,-9.631 2.133,-11.739c-2.763,-1.671 -9.016,5.867 -10.533,7.561c-1.835,2.05 -3.948,4.48 -5.329,6.849c-1.414,2.429 -2.143,5.108 -3.678,7.577c-2.737,4.404 -3.498,9.937 2.025,12.071c3.999,1.545 8.431,-1.755 11.577,-4.041c4.016,-2.916 6.138,-6.031 9.455,-10.004c2.905,-3.479 8.121,-5.539 11.252,-8.894c2.562,-2.745 5.121,-6.155 8.267,-8.252c0.49,-0.327 2.971,-1.922 3.572,-1.388c1.121,0.996 -3.499,6.002 -3.823,6.717c-2.966,6.552 -7.872,12.489 -10.555,19.146c-0.756,1.876 -3.051,6.071 -1.137,7.986c0.979,0.978 2.485,0.311 3.558,-0c3.5,-1.018 6.813,-1.453 10.038,-3.292c4.679,-2.668 9.919,-5.326 14.112,-8.754c3.464,-2.832 6.394,-6.363 9.537,-9.506c2.518,-2.519 6.857,-7.639 5.727,-11.909c-1.049,-3.963 -8.159,-0.202 -9.669,1.151c-1.56,1.399 -2.774,3.146 -4.192,4.68c-4.811,5.2 -13.443,14.558 -9.536,22.684c1.25,2.602 5.926,1.662 7.764,0.635c6.116,-3.415 9.768,-9.037 12.459,-15.337c0.249,-0.583 5.311,-8.866 4.037,-9.466c-1.52,-0.715 -5.918,7.269 -6.325,8.064c-0.784,1.532 -0.622,3.311 -1.018,4.945c-0.813,3.349 -1.184,6.457 -0.805,8.89c0.196,1.258 1.403,5.198 2.635,6.078c1.383,0.988 4.319,1.595 5.576,0.73c3.319,-2.281 3.104,-9.23 5.053,-12.776c7.865,-14.311 19.392,-22.195 31.07,-33.095c4.278,-3.993 9.322,-15.156 11.322,-21.625c0.456,-1.474 2,-4.772 0.347,-5.853c-1.281,-0.838 -3.398,0.791 -4.325,1.254c-4.267,2.133 -7.026,8.285 -10.323,11.773c-7.769,8.219 -13.439,17.861 -17.574,28.629c-1.457,3.795 -3.037,6.471 -4.037,10.415c-1.226,4.833 -4.437,10.34 -3.269,15.333c0.356,1.525 1.947,3.479 3.904,2.809c2.857,-0.979 6.186,-3.448 8.034,-6.097c2.121,-3.039 4.613,-6.668 5.371,-10.468c1.327,-6.661 -0.604,-13.849 -4.371,-19.321c-6.557,-9.524 -18.182,-11.247 -28.49,-13.949c-2.463,-0.646 -3.831,-5.448 -6.385,-5.251c-0.872,0.067 -5.837,8.223 -6.672,8.502c-0.034,0.011 -1.402,0.555 -1.402,0.384c-0,-0.422 0.833,-0.494 0.635,-1.137c-1.003,-3.259 -5.954,-8.421 -8.806,-8.831c-10.668,-1.532 -24.646,-1.335 -35.015,1.89c-2.771,0.861 -1.789,5.515 -4.266,7.059c-0.707,0.441 -1.702,0.934 -2.288,1.52c-0.257,0.257 -0.021,1.019 -0.384,1.019c-0.451,-0 -2.732,-2.497 -3.189,-2.79c-2.885,-1.851 -6.409,-6.027 -9.787,-6.676c-13.123,-2.519 -26.183,-5.205 -39.414,-7.351c-14.172,-2.298 -29.036,-2.046 -43.355,-2.288c-16.019,-0.27 -32.069,-0.938 -48.065,-1.771c-8.969,-0.468 -17.981,0.478 -26.955,0.634c-30.556,0.533 -61.174,3.085 -91.302,7.736c-10.975,1.694 -21.559,3.544 -32.166,6.849c-2.942,0.917 -6.036,0.876 -8.901,2.022c-3.298,1.319 -6.571,-0.525 -9.787,1.06c-0.248,0.122 -2.542,1.65 -2.923,1.269c-0.852,-0.852 0.557,-4.616 1.402,-5.196c0.889,-0.61 2.136,-1.585 3.174,-1.904c0.664,-0.204 0.199,0.902 0.768,0.635" style="fill:none;"/></svg>